<?xml version="1.0" encoding="UTF-8"?>
<svg width="60px" height="30px" viewBox="0 0 60 30" version="1.1" xmlns="http://www.w3.org/2000/svg" xmlns:xlink="http://www.w3.org/1999/xlink">
    <!-- Generator: Sketch 46.2 (44496) - http://www.bohemiancoding.com/sketch -->
    <title>logo</title>
    <desc>Created with Sketch.</desc>
    <defs>
        <linearGradient x1="97.5506218%" y1="97.5506218%" x2="2.08266901%" y2="2.08266901%" id="linearGradient-1">
            <stop stop-color="#1F1F1F" offset="0%"></stop>
            <stop stop-color="#6B5C09" offset="100%"></stop>
        </linearGradient>
    </defs>
    <g id="Page-1" stroke="none" stroke-width="1" fill="none" fill-rule="evenodd">
        <g id="首页" transform="translate(-345.000000, -146.000000)" fill="url(#linearGradient-1)">
            <g id="nav" transform="translate(0.000000, 117.000000)">
                <path d="M345,48 C345,54.0652357 349.93339,59 356,59 L356,59 C362.067847,59 367,54.0652357 367,48 L367,48 C367,41.9341462 362.067847,37 356,37 L356,37 C349.93339,37 345,41.9341462 345,48 M349,48 C349,44.1406707 352.140536,41 356,41 L356,41 C359.858862,41 363,44.1406707 363,48 L363,48 C363,51.8599312 359.858862,55 356,55 L356,55 C352.140536,55 349,51.8599312 349,48 M383,48 C383,54.0652357 387.935105,59 394,59 L394,59 C400.067985,59 405,54.0652357 405,48 L405,48 C405,41.9341462 400.067985,37 394,37 L394,37 C387.935105,37 383,41.9341462 383,48 M387,48 C387,44.1406707 390.140536,41 394,41 C397.858862,41 401,44.1406707 401,48 C401,51.8599312 397.858862,55 394,55 C390.140536,55 387,51.8599312 387,48 Z M381,29 C382.137774,29.0196371 382.991105,29.8585104 383,31 C382.991105,31.9283859 382.132691,32.7709411 381,33 L378,33 C376.409721,32.781987 374.917823,34.2253155 375,36 C374.917823,36.0159756 374.917823,36.0368401 375,36 L375,37 L381,37 C382.151117,37.1764068 383,38.0146665 383,39 C383,40.075337 382.151117,40.912983 381,41 L375,41 C374.916552,40.9344611 374.914646,48.5395504 375,49 L375,57 C374.916552,57.0645161 374.916552,57.0872216 375,57 C374.916552,57.1301778 374.916552,57.1528832 375,57 C374.880335,58.189355 374.017473,59 373,59 C371.877475,59 371,58.1531491 371,57 L371,45 L371,39 L371,36 C371,32.1382576 374.249391,29 378,29 L381,29 Z" id="logo"></path>
            </g>
        </g>
    </g>
</svg>