<?xml version="1.0" encoding="UTF-8"?>
<svg width="180px" height="38px" viewBox="0 0 180 38" version="1.1" xmlns="http://www.w3.org/2000/svg" xmlns:xlink="http://www.w3.org/1999/xlink">
    <!-- Generator: Sketch 46.2 (44496) - http://www.bohemiancoding.com/sketch -->
    <title>logo</title>
    <desc>Created with Sketch.</desc>
    <defs>
        <linearGradient x1="100%" y1="100%" x2="0%" y2="0%" id="linearGradient-1">
            <stop stop-color="#F2B912" offset="0%"></stop>
            <stop stop-color="#FBD805" offset="27.2396919%"></stop>
            <stop stop-color="#FFE700" offset="56.4811862%"></stop>
            <stop stop-color="#FCE934" offset="82.7327806%"></stop>
            <stop stop-color="#FCEC61" offset="100%"></stop>
        </linearGradient>
    </defs>
    <g id="Page-1" stroke="none" stroke-width="1" fill="none" fill-rule="evenodd">
        <g id="首页" transform="translate(-285.000000, -142.000000)">
            <g id="nav" transform="translate(0.000000, 117.000000)">
                <g id="logo" transform="translate(285.000000, 25.000000)">
                    <g id="Group">
                        <path d="M0,24.1106122 C0,31.7206939 6.14,37.9123673 13.69,37.9123673 L13.69,37.9123673 C21.2423077,37.9123673 27.3807692,31.7206939 27.3807692,24.1106122 L27.3807692,24.1106122 C27.3807692,16.4997551 21.2423077,10.3088571 13.69,10.3088571 L13.69,10.3088571 C6.14,10.3088571 0,16.4997551 0,24.1106122 M4.74384615,24.1106122 C4.74384615,19.1380408 8.75769231,15.0914286 13.69,15.0914286 L13.69,15.0914286 C18.6223077,15.0914286 22.6369231,19.1380408 22.6369231,24.1106122 L22.6369231,24.1106122 C22.6369231,29.0839592 18.6223077,33.1297959 13.69,33.1297959 L13.69,33.1297959 C8.75769231,33.1297959 4.74384615,29.0839592 4.74384615,24.1106122 M47.4107692,24.1106122 C47.4107692,31.7206939 53.5530769,37.9123673 61.1015385,37.9123673 L61.1015385,37.9123673 C68.6538462,37.9123673 74.7923077,31.7206939 74.7923077,24.1106122 L74.7923077,24.1106122 C74.7923077,16.4997551 68.6538462,10.3088571 61.1015385,10.3088571 L61.1015385,10.3088571 C53.5530769,10.3088571 47.4107692,16.4997551 47.4107692,24.1106122 M52.1561538,24.1106122 C52.1561538,19.1380408 56.17,15.0914286 61.1015385,15.0914286 C66.0346154,15.0914286 70.0492308,19.1380408 70.0492308,24.1106122 C70.0492308,29.0839592 66.0346154,33.1297959 61.1015385,33.1297959 C56.17,33.1297959 52.1561538,29.0839592 52.1561538,24.1106122 Z M45.0069231,0 L45.0953846,0 C46.3776923,0.0248163265 47.4107692,1.08493878 47.4107692,2.39012245 C47.4107692,3.70073469 46.3715385,4.7655102 45.0792308,4.77946939 L45.0523077,4.77946939 L45.0238462,4.77946939 L41.6623077,4.77946939 C39.4430769,4.77946939 37.6369231,6.60346939 37.6369231,8.83926531 C37.6369231,8.86640816 37.6369231,8.89277551 37.6330769,8.91759184 L37.6330769,10.3034286 L45.0069231,10.3034286 L45.1146154,10.3034286 C46.3938462,10.332898 47.4215385,11.3922449 47.4215385,12.6927755 C47.4215385,13.9964082 46.3938462,15.0549796 45.1130769,15.0821224 L45.0884615,15.0821224 L45.0338462,15.0821224 L45.0069231,15.0821224 L37.6353846,15.0821224 C37.6353846,15.0821224 37.6330769,24.6930204 37.6330769,25.118 L37.6330769,25.1242041 L37.6330769,25.1342857 L37.6330769,35.4400408 C37.6353846,35.4664082 37.6353846,35.495102 37.6353846,35.5230204 C37.6353846,35.5493878 37.6353846,35.5780816 37.6330769,35.6052245 C37.5915385,36.8879184 36.5469231,37.9123673 35.2653846,37.9123673 C33.9561538,37.9123673 32.8938462,36.8421633 32.8938462,35.5230204 L32.8938462,20.3548163 L32.8938462,12.0987347 L32.8938462,8.83926531 C32.8938462,3.96595918 36.8276923,0 41.6623077,0 L45.0069231,0 Z" id="Fill-7" fill="url(#linearGradient-1)"></path>
                        <g id="Group-19" transform="translate(83.846154, 9.306122)" fill="#3E3A39">
                            <path d="M94.7287692,20.9410245 C95.398,20.9410245 95.9433846,21.4761265 95.9433846,22.1531469 C95.9433846,22.8301673 95.398,23.3551878 94.7287692,23.3551878 L83.4233846,23.3551878 L83.4233846,27.1024531 C83.4233846,27.780249 82.8764615,28.3262082 82.2103077,28.3262082 C81.5395385,28.3262082 80.998,27.780249 80.998,27.1024531 L80.998,23.3551878 L68.8818462,23.3551878 C68.2164615,23.3551878 67.6695385,22.8301673 67.6695385,22.1531469 C67.6695385,21.4761265 68.2164615,20.9410245 68.8818462,20.9410245 L80.998,20.9410245 L80.998,15.9901673 L71.6503077,15.9901673 C71.2526154,15.9901673 70.8749231,15.9397592 70.5287692,15.7908612 C69.5164615,15.352698 68.8064615,14.2623306 68.8064615,13.077351 C68.8064615,12.8927796 68.8256923,12.7089837 68.858,12.5298408 C68.8656923,12.4988204 68.8726154,12.4685755 68.878,12.4398816 C68.9326154,12.2056776 69.0018462,11.9761265 69.0918462,11.7481265 L70.828,6.62200408 L68.6172308,6.62200408 L68.6149231,6.62200408 C67.9556923,6.62200408 67.4218462,6.08612653 67.4218462,5.41220816 C67.4218462,4.75147347 67.9556923,4.21171837 68.6149231,4.21171837 L68.6172308,4.21171837 L71.8287692,4.21171837 L72.6703077,2.12559592 L72.8956923,1.57575918 C72.8956923,1.57575918 72.9333846,1.48890204 72.9987692,1.36559592 C73.0272308,1.31518776 73.0587692,1.26090204 73.0964615,1.20273878 C73.3064615,0.907269388 73.6464615,0.715718367 74.0326154,0.715718367 C74.668,0.715718367 75.1856923,1.2353102 75.1856923,1.87743265 C75.1856923,2.00771837 75.1618462,2.13102449 75.1241538,2.24967755 C75.1241538,2.24967755 75.1218462,2.25277959 75.1210769,2.25433061 L75.0495385,2.42339184 L74.3033846,4.21171837 L94.4649231,4.21171837 C95.1264615,4.21171837 95.6618462,4.75147347 95.6618462,5.41220816 C95.6618462,6.08612653 95.1264615,6.62200408 94.4649231,6.62200408 L73.308,6.62200408 L72.0803077,10.2467388 L71.7541538,11.210698 C71.4718462,11.9272694 71.3510769,12.279351 71.298,12.470902 C71.2941538,12.4972694 71.2841538,12.5213102 71.2795385,12.5500041 C71.2726154,12.5942082 71.2656923,12.6399633 71.2656923,12.6872694 C71.2656923,12.7942898 71.288,12.8958816 71.3249231,12.9897184 C71.4433846,13.2921673 71.7364615,13.5822082 72.0787692,13.5822082 C72.1364615,13.5822082 80.998,13.5806571 80.998,13.5806571 L80.998,9.37584082 L80.998,9.37273878 C80.998,8.69726939 81.5395385,8.14975918 82.2103077,8.14975918 C82.8764615,8.14975918 83.4233846,8.69726939 83.4233846,9.37273878 L83.4233846,9.37584082 L83.4233846,13.5806571 L93.2641538,13.5806571 C93.9326154,13.5806571 94.4756923,14.1289429 94.4756923,14.8028612 C94.4756923,15.4775551 93.9326154,15.9901673 93.2641538,15.9901673 L83.4233846,15.9901673 L83.4233846,20.9410245 L94.7287692,20.9410245 Z" id="Fill-9"></path>
                            <path d="M41.6053846,8.14983673 L54.7215385,8.14983673 L54.7215385,5.41771429 L41.6053846,5.41771429 L41.6053846,8.14983673 Z M58.4661538,14.7478776 C58.9130769,14.7478776 59.2846154,15.0642857 59.3807692,15.4846122 C59.4130769,15.581551 59.4076923,16.6393469 59.4076923,16.6393469 L49.3353846,16.6393469 L49.3353846,14.7478776 L58.4661538,14.7478776 Z M59.3715385,20.2431429 C59.2623077,20.6479592 58.8984615,20.9504082 58.4661538,20.9504082 L49.3353846,20.9504082 L49.3353846,19.0457551 L59.4223077,19.0457551 L59.4223077,19.8104082 C59.4223077,19.8670204 59.4092308,20.1043265 59.3715385,20.2431429 L59.3715385,20.2431429 Z M46.9461538,16.6393469 L36.89,16.6393469 C36.89,16.6393469 36.8892308,15.6451429 36.89,15.6203265 C36.9207692,15.2488571 37.1646154,14.9402041 37.4961538,14.8114694 C37.6007692,14.7726939 37.7115385,14.7478776 37.8284615,14.7478776 L46.9461538,14.7478776 L46.9461538,16.6393469 Z M46.9461538,20.9504082 L37.8284615,20.9504082 C37.3107692,20.9504082 36.89,20.5192245 36.89,19.9973061 L36.89,19.0457551 L46.9461538,19.0457551 L46.9461538,20.9504082 Z M61.2346154,5.41771429 C61.8761538,5.39677551 62.3930769,4.86865306 62.3938462,4.21644898 L62.3938462,4.20791837 C62.3930769,3.54795918 61.8684615,3.01595918 61.2169231,3.00587755 L57.1146154,3.00587755 L57.1146154,1.92093878 C57.1146154,1.52232653 56.9207692,1.17102041 56.6269231,0.95077551 C56.4284615,0.803428571 56.1838462,0.715795918 55.9176923,0.715795918 C55.65,0.715795918 55.4053846,0.803428571 55.2076923,0.95077551 C54.9176923,1.16791837 54.7269231,1.5122449 54.7215385,1.90232653 L54.7215385,1.94110204 L54.7215385,3.00587755 L41.6053846,3.00587755 L41.6053846,1.95816327 L41.6053846,1.9302449 C41.6,1.52697959 41.4030769,1.17257143 41.1030769,0.95077551 C40.9015385,0.801877551 40.6523077,0.715795918 40.3846154,0.715795918 C40.1161538,0.715795918 39.8669231,0.801877551 39.6646154,0.95077551 C39.3730769,1.16946939 39.1792308,1.51379592 39.1653846,1.90542857 L39.1653846,3.00587755 L35.0646154,3.00587755 C34.4107692,3.01595918 33.8853846,3.55183673 33.8853846,4.21179592 C33.8853846,4.86555102 34.4015385,5.39677551 35.0476923,5.41771429 L39.1653846,5.41771429 L39.1653846,8.14983673 L35.1215385,8.14983673 L35.0446154,8.14983673 C34.4015385,8.17 33.8853846,8.70122449 33.8853846,9.35497959 C33.8853846,10.0172653 34.4130769,10.5539184 35.0692308,10.560898 L35.0976923,10.560898 L46.9461538,10.560898 L46.9461538,12.3352653 L37.7630769,12.3352653 C36.0115385,12.3709388 34.5923077,13.7645306 34.5015385,15.5148571 C34.5015385,15.6273061 34.4992308,20.0709796 34.4992308,20.1694694 C34.5876923,21.924449 36.01,23.3219184 37.7638462,23.3552653 L58.5676923,23.3552653 C60.3284615,23.3009796 61.7438462,21.8763673 61.7984615,20.1043265 L61.7984615,15.5908571 C61.7423077,13.8141633 60.3223077,12.3872245 58.5576923,12.3368163 L49.3353846,12.3368163 L49.3353846,10.560898 L61.1861538,10.560898 L61.2123077,10.560898 C61.8638462,10.5539184 62.3930769,10.0195918 62.3938462,9.35808163 L62.3938462,9.34955102 C62.3930769,8.69967347 61.8776923,8.17 61.2361538,8.14983673 L61.16,8.14983673 L57.1146154,8.14983673 L57.1146154,5.41771429 L61.2346154,5.41771429 Z" id="Fill-11"></path>
                            <path d="M40.4048462,24.1786245 C40.2494615,24.1786245 40.0994615,24.2104204 39.9625385,24.2631551 C39.931,24.2786653 39.8971538,24.2926245 39.8663846,24.3065837 C39.7333077,24.366298 39.6025385,24.4244612 39.4717692,24.481849 C38.9948462,24.6889102 38.5017692,24.8820122 38.0156154,25.0580531 C37.5071538,25.2371959 36.981,25.4008286 36.4525385,25.548951 C35.9371538,25.6947469 35.3933077,25.8366653 34.8348462,25.9723796 C34.8202308,25.9754816 34.8079231,25.9793592 34.7933077,25.9824612 C34.2733077,26.1057673 33.8856154,26.5772776 33.8856154,27.1395224 C33.8856154,27.7956041 34.411,28.3268286 35.0648462,28.3268286 C35.1471538,28.3268286 35.2271538,28.3190735 35.3025385,28.3035633 L35.3048462,28.3035633 C36.5363846,28.0228286 37.7163846,27.6971143 38.8125385,27.334951 C39.3494615,27.1558082 39.8963846,26.9440939 40.4325385,26.7091143 C40.5679231,26.6494 40.7033077,26.5889102 40.8402308,26.5276449 C40.8863846,26.5105837 40.9317692,26.4904204 40.9748462,26.4679306 C41.3525385,26.2624204 41.6102308,25.8591551 41.6102308,25.3954 C41.6102308,24.7238082 41.0694615,24.1786245 40.4048462,24.1786245" id="Fill-13"></path>
                            <path d="M61.7645385,26.0465959 L61.7637692,26.0442694 C61.7406923,26.0326367 61.7176154,26.0210041 61.6953077,26.0109224 C61.673,26.0023918 61.6514615,25.9915347 61.6283846,25.9830041 C61.6191538,25.979902 61.613,25.9760245 61.6060769,25.9721469 L61.5953077,25.9682694 L61.5676154,25.9597388 L61.5253077,25.9473306 L56.0260769,24.2365551 L55.9714615,24.2210449 C55.8683846,24.1900245 55.7576154,24.1737388 55.6460769,24.1737388 C54.9860769,24.1737388 54.4514615,24.7111673 54.4514615,25.3757796 C54.4514615,25.9093306 54.7968462,26.359902 55.2706923,26.5196571 L55.3076154,26.5289633 L60.8699231,28.293249 L60.9068462,28.3017796 C60.9568462,28.3103102 61.0099231,28.3165143 61.0599231,28.3196163 C61.1022308,28.3250449 61.1453077,28.3265959 61.1899231,28.3265959 C61.243,28.3265959 61.2945385,28.3234939 61.3460769,28.3180653 C61.9376154,28.2389633 62.3937692,27.7310041 62.3937692,27.113698 C62.3937692,26.6522694 62.1391538,26.2521061 61.7645385,26.0465959" id="Fill-14"></path>
                            <path d="M8.93176923,28.3265184 L8.93176923,28.2877429 C8.93176923,28.2947224 8.93023077,28.301702 8.93023077,28.3094571 C8.93023077,28.3141102 8.93176923,28.3218653 8.93176923,28.3265184" id="Fill-15"></path>
                            <path d="M16.1936154,1.90542857 C16.1897692,1.63167347 16.0943846,1.37808163 15.9382308,1.178 C15.7197692,0.894938776 15.3805385,0.715795918 14.9982308,0.715795918 C14.6197692,0.715795918 14.2859231,0.891836735 14.0651538,1.16481633 C13.9028462,1.36955102 13.8036154,1.62857143 13.8028462,1.9077551 L13.8028462,1.92093878 L13.8028462,1.93257143 L13.8028462,24.6658776 C13.8028462,25.3568571 13.2443846,25.916 12.5605385,25.916 C12.4436154,25.916 10.1420769,25.9136735 10.1420769,25.9136735 L10.1151538,25.9136735 C9.79284615,25.919102 9.50284615,26.0493878 9.289,26.2603265 C9.07438462,26.4774694 8.93592308,26.7721633 8.93053846,27.1025306 L8.93053846,27.1420816 C8.94207692,27.7927347 9.46284615,28.3193061 10.1120769,28.3262857 L12.5605385,28.3262857 C14.5666923,28.3262857 16.1936154,26.6876327 16.1936154,24.6658776 L16.1936154,1.93644898 L16.1936154,1.92093878 L16.1936154,1.90542857 Z" id="Fill-16"></path>
                            <path d="M29.0955385,21.8959878 L29.0624615,21.7819878 L24.5047692,6.33925306 L24.4663077,6.21206939 C24.3032308,5.74831429 23.864,5.41794694 23.3455385,5.41794694 C22.6909231,5.41794694 22.1570769,5.95382449 22.1570769,6.61688571 C22.1570769,6.71304898 22.1709231,6.80921224 22.1916923,6.90072245 L22.2286154,7.02247755 L26.8086154,22.4047224 L26.8732308,22.6226408 C27.0486154,23.053049 27.4686154,23.3578245 27.9578462,23.3578245 C28.6047692,23.3578245 29.1301538,22.828151 29.1301538,22.177498 C29.1301538,22.0805592 29.1186154,21.9859469 29.0955385,21.8959878" id="Fill-17"></path>
                            <path d="M6.32807692,5.41794694 C5.73346154,5.41794694 5.24269231,5.85223265 5.14576923,6.42145714 C5.14038462,6.45868163 5.13653846,6.49745714 5.13115385,6.5323551 C4.75807692,9.44749796 4.19730769,12.1594571 3.45884615,14.5961102 C2.72115385,17.0327633 1.85576923,19.3724776 0.888076923,21.5617429 C0.853461538,21.6423959 0.815769231,21.7222735 0.781153846,21.8013755 C0.745,21.9153755 0.723461538,22.0386816 0.723461538,22.1650898 C0.723461538,22.8242735 1.25423077,23.3578245 1.90576923,23.3578245 C2.34807692,23.3578245 2.73115385,23.1143143 2.93346154,22.7529265 C2.96192308,22.6908857 2.98961538,22.6327224 3.01576923,22.5714571 C4.05192308,20.2643143 4.96423077,17.8113755 5.72807692,15.2715796 C6.49115385,12.7379878 7.08423077,9.91978367 7.50115385,6.88055918 C7.50884615,6.82472245 7.51653846,6.76655918 7.52423077,6.70994694 C7.52653846,6.68125306 7.52884615,6.65566122 7.52884615,6.62619184 C7.52884615,5.95925306 6.99038462,5.41794694 6.32807692,5.41794694" id="Fill-18"></path>
                        </g>
                    </g>
                </g>
            </g>
        </g>
    </g>
</svg>