<?xml version="1.0" encoding="UTF-8"?>
<svg width="35px" height="35px" viewBox="0 0 35 35" version="1.1" xmlns="http://www.w3.org/2000/svg" xmlns:xlink="http://www.w3.org/1999/xlink">
    <!-- Generator: Sketch 49 (51002) - http://www.bohemiancoding.com/sketch -->
    <title>ic_toast_failure</title>
    <desc>Created with Sketch.</desc>
    <defs></defs>
    <g id="Page-1" stroke="none" stroke-width="1" fill="none" fill-rule="evenodd">
        <g id="商业合作" transform="translate(-703.000000, -3343.000000)" fill="#FF5555">
            <g id="Group-4-Copy" transform="translate(635.000000, 3317.000000)">
                <path d="M85.2323372,39.0248748 L97.1534808,27.1037312 C98.3153394,25.9418725 100.199085,25.9418725 101.360943,27.1037312 C102.522802,28.2655899 102.522802,30.149335 101.360943,31.3111937 L89.4397996,43.2323372 L101.360943,55.1534808 C102.522802,56.3153394 102.522802,58.1990845 101.360943,59.3609432 C100.199085,60.5228019 98.3153394,60.5228019 97.1534808,59.3609432 L85.2323372,47.4397996 L73.3111937,59.3609432 C72.149335,60.5228019 70.2655899,60.5228019 69.1037312,59.3609432 C67.9418725,58.1990845 67.9418725,56.3153394 69.1037312,55.1534808 L81.0248748,43.2323372 L69.1037312,31.3111937 C67.9418725,30.149335 67.9418725,28.2655899 69.1037312,27.1037312 C70.2655899,25.9418725 72.149335,25.9418725 73.3111937,27.1037312 L85.2323372,39.0248748 Z" id="ic_toast_failure"></path>
            </g>
        </g>
    </g>
</svg>